<?xml version="1.0" encoding="utf-8"?>
<!-- Generator: Adobe Illustrator 22.0.0, SVG Export Plug-In . SVG Version: 6.00 Build 0)  -->
<svg version="1.1" id="Слой_1" xmlns="http://www.w3.org/2000/svg" xmlns:xlink="http://www.w3.org/1999/xlink" x="0px" y="0px"
	 viewBox="0 0 140 63" style="enable-background:new 0 0 140 63;" xml:space="preserve">
<style type="text/css">
	.st0{fill:none;stroke:#000000;stroke-width:0.5;stroke-miterlimit:10;}
</style>
<g>
	<path d="M32.3,37.4v-11h1.5l3.5,5.6c0.8,1.3,1.4,2.4,2,3.6l0,0c-0.1-1.5-0.2-2.8-0.2-4.5v-4.6h1.3v11h-1.4l-3.5-5.6
		c-0.8-1.2-1.5-2.5-2.1-3.7l0,0c0.1,1.4,0.1,2.7,0.1,4.5v4.7H32.3z"/>
	<path d="M55.8,31.8c0,3.8-2.3,5.8-5.1,5.8c-2.9,0-4.9-2.2-4.9-5.6c0-3.5,2.2-5.8,5.1-5.8C53.9,26.2,55.8,28.5,55.8,31.8z
		 M47.3,31.9c0,2.3,1.3,4.4,3.5,4.4c2.2,0,3.5-2.1,3.5-4.6c0-2.2-1.1-4.5-3.5-4.5C48.5,27.4,47.3,29.5,47.3,31.9z"/>
	<path d="M61.1,26.5c0.9-0.1,1.9-0.2,3-0.2c2,0,3.5,0.5,4.4,1.4c1,0.9,1.5,2.2,1.5,3.9c0,1.8-0.6,3.3-1.6,4.3c-1,1-2.7,1.6-4.9,1.6
		c-1,0-1.9,0-2.6-0.1V26.5z M62.5,36.2c0.4,0.1,0.9,0.1,1.4,0.1c3,0,4.7-1.7,4.7-4.7c0-2.6-1.4-4.2-4.4-4.2c-0.7,0-1.3,0.1-1.7,0.1
		V36.2z"/>
	<path d="M76.8,26.4v11h-1.4v-11H76.8z"/>
	<path d="M82.7,37.4v-11h1.5l3.5,5.6c0.8,1.3,1.4,2.4,2,3.6l0,0c-0.1-1.5-0.2-2.8-0.2-4.5v-4.6H91v11h-1.4l-3.5-5.6
		c-0.8-1.2-1.5-2.5-2.1-3.7l0,0c0.1,1.4,0.1,2.7,0.1,4.5v4.7H82.7z"/>
	<path d="M98.7,37.4l-3.6-11h1.5l1.7,5.4c0.5,1.5,0.9,2.8,1.2,4.1h0c0.3-1.3,0.8-2.7,1.3-4.1l1.9-5.4h1.5l-3.9,11H98.7z"/>
	<path d="M114.5,32.2h-4.3v4h4.8v1.2h-6.2v-11h5.9v1.2h-4.5V31h4.3V32.2z"/>
	<path d="M120.1,35.6c0.6,0.4,1.6,0.7,2.5,0.7c1.4,0,2.3-0.8,2.3-1.9c0-1-0.6-1.6-2.1-2.2c-1.8-0.6-2.9-1.6-2.9-3.1
		c0-1.7,1.4-3,3.5-3c1.1,0,1.9,0.3,2.4,0.5l-0.4,1.2c-0.4-0.2-1.1-0.5-2.1-0.5c-1.5,0-2.1,0.9-2.1,1.6c0,1,0.7,1.5,2.2,2.1
		c1.9,0.7,2.8,1.6,2.8,3.2c0,1.7-1.3,3.2-3.8,3.2c-1.1,0-2.2-0.3-2.8-0.7L120.1,35.6z"/>
	<path d="M133.2,27.6h-3.3v-1.2h8.1v1.2h-3.4v9.8h-1.4V27.6z"/>
</g>
<g>
	<path d="M4.9,23.6h3l6.9,10.6V23.6h3.1v16.2h-3L7.9,29.1v10.6H4.9V23.6z"/>
</g>
<line class="st0" x1="25.3" y1="20.4" x2="25.3" y2="42.8"/>
</svg>
